<?xml version="1.0" standalone="no"?>
<!DOCTYPE svg PUBLIC "-//W3C//DTD SVG 20010904//EN"
 "http://www.w3.org/TR/2001/REC-SVG-20010904/DTD/svg10.dtd">
<svg version="1.0" xmlns="http://www.w3.org/2000/svg"
 width="532.000000pt" height="532.000000pt" viewBox="0 0 532.000000 532.000000"
 preserveAspectRatio="xMidYMid meet">
<metadata>
Created by potrace 1.14, written by Peter Selinger 2001-2017
</metadata>
<g transform="translate(0.000000,532.000000) scale(0.100000,-0.100000)"
fill="#000000" stroke="none">
<path d="M1751 4379 l-31 -31 0 -1173 c0 -772 -3 -1176 -10 -1180 -5 -3 -10
-23 -10 -43 0 -52 -10 -82 -26 -82 -8 0 -14 -7 -14 -15 0 -8 -4 -15 -10 -15
-5 0 -12 -11 -16 -25 -3 -14 -12 -25 -20 -25 -8 0 -14 -6 -14 -14 0 -8 -7 -16
-15 -20 -8 -3 -15 -12 -15 -21 0 -8 -4 -15 -10 -15 -19 0 -50 -35 -50 -56 0
-17 -8 -24 -30 -29 -23 -5 -30 -12 -30 -31 0 -13 -6 -24 -13 -24 -16 0 -47
-36 -47 -55 0 -8 -7 -15 -15 -15 -8 0 -15 -7 -15 -15 0 -8 -7 -15 -15 -15 -8
0 -15 -5 -15 -11 0 -6 -17 -28 -37 -48 -21 -20 -44 -49 -50 -64 -7 -15 -17
-27 -23 -27 -5 0 -10 -7 -10 -15 0 -8 -7 -15 -15 -15 -8 0 -15 -7 -15 -15 0
-8 -7 -15 -15 -15 -8 0 -15 -4 -15 -10 0 -15 -33 -50 -47 -50 -8 0 -13 -12
-13 -30 0 -16 -4 -30 -10 -30 -13 0 -50 -37 -50 -50 0 -5 -7 -10 -15 -10 -8 0
-15 -7 -15 -15 0 -8 -6 -15 -14 -15 -8 0 -17 -13 -21 -30 -4 -17 -13 -30 -21
-30 -8 0 -14 -7 -14 -15 0 -8 -7 -15 -15 -15 -8 0 -15 -7 -15 -15 0 -8 -4 -15
-10 -15 -5 0 -10 -7 -10 -15 0 -8 -7 -15 -15 -15 -8 0 -15 -7 -15 -15 0 -8 -4
-15 -10 -15 -5 0 -10 -7 -10 -15 0 -8 -9 -15 -20 -15 -11 0 -20 -7 -20 -15 0
-8 -4 -15 -10 -15 -5 0 -10 -6 -10 -13 0 -7 -8 -22 -18 -33 -32 -34 -43 -82
-30 -125 l11 -39 74 0 c58 0 73 3 73 15 0 8 7 15 15 15 8 0 15 7 15 15 0 8 7
15 15 15 8 0 15 7 15 15 0 8 9 24 20 35 11 11 20 25 20 30 0 6 5 10 10 10 6 0
10 7 10 15 0 8 7 15 15 15 8 0 15 7 15 15 0 8 7 15 15 15 8 0 15 7 15 15 0 8
6 15 14 15 8 0 17 13 21 30 5 23 12 30 31 30 20 0 24 5 24 30 0 20 5 30 15 30
8 0 15 7 15 15 0 8 7 15 15 15 8 0 15 7 15 15 0 8 7 15 15 15 8 0 15 7 15 15
0 8 7 15 15 15 8 0 15 5 15 11 0 5 13 22 29 37 16 15 32 37 36 50 3 12 11 22
16 22 5 0 9 7 9 15 0 8 7 15 15 15 8 0 15 7 15 15 0 8 7 15 15 15 8 0 15 7 15
15 0 8 7 15 15 15 8 0 15 7 15 15 0 8 7 15 15 15 8 0 15 7 15 15 0 9 7 18 15
21 8 4 15 17 15 30 0 13 6 24 13 24 13 0 47 34 47 48 0 10 38 42 50 42 6 0 10
7 10 15 0 9 7 18 15 21 8 4 15 12 15 19 0 8 14 27 30 43 17 17 30 35 30 41 0
6 7 11 15 11 8 0 15 6 15 13 0 7 13 24 29 38 15 14 31 35 35 47 5 15 15 22 32
22 13 0 24 -4 24 -9 0 -5 14 -12 30 -16 17 -4 30 -13 30 -21 0 -8 4 -14 10
-14 5 0 37 -27 69 -60 33 -33 64 -60 70 -60 6 0 11 -4 11 -10 0 -5 11 -12 25
-16 14 -3 25 -12 25 -20 0 -8 7 -14 15 -14 8 0 15 -7 15 -15 0 -8 5 -15 10
-15 6 0 27 -18 49 -40 21 -22 42 -40 46 -40 4 0 23 -16 43 -36 60 -58 68 -64
80 -64 7 0 12 -7 12 -15 0 -8 6 -15 13 -15 6 -1 23 -14 37 -30 13 -17 30 -30
37 -30 7 0 13 -7 13 -15 0 -8 7 -15 15 -15 8 0 15 -7 15 -15 0 -9 9 -15 25
-15 16 0 25 -6 25 -15 0 -8 7 -15 15 -15 8 0 15 -7 15 -15 0 -8 9 -15 20 -15
11 0 20 -7 20 -15 0 -8 7 -15 15 -15 8 0 15 -7 15 -15 0 -8 7 -15 15 -15 8 0
15 -7 15 -15 0 -9 9 -15 23 -15 16 0 26 -9 34 -30 6 -16 18 -30 27 -30 9 0 16
-7 16 -15 0 -9 9 -15 25 -15 16 0 25 -6 25 -15 0 -8 5 -15 10 -15 6 0 10 -7
10 -15 0 -8 9 -15 20 -15 11 0 20 -7 20 -15 0 -8 7 -15 15 -15 8 0 15 -7 15
-15 0 -9 9 -15 24 -15 19 0 26 -7 31 -30 5 -21 13 -30 26 -30 11 0 22 -7 25
-15 4 -8 13 -15 20 -15 8 0 17 -7 20 -15 9 -22 134 -22 134 0 0 8 5 15 10 15
6 0 10 27 10 60 0 47 -3 60 -15 60 -8 0 -15 7 -15 15 0 8 -7 15 -15 15 -8 0
-15 7 -15 15 0 8 -7 15 -15 15 -8 0 -15 7 -15 15 0 9 -9 15 -25 15 -14 0 -25
5 -25 10 0 13 -37 50 -50 50 -5 0 -10 7 -10 15 0 8 -9 15 -20 15 -11 0 -20 7
-20 15 0 8 -7 15 -15 15 -8 0 -15 7 -15 15 0 8 -7 15 -15 15 -8 0 -15 7 -15
15 0 8 -6 15 -13 15 -14 0 -47 35 -47 50 0 6 -11 10 -24 10 -17 0 -31 10 -43
30 -9 16 -25 30 -35 30 -10 0 -18 6 -18 13 0 13 -34 47 -48 47 -10 0 -42 38
-42 50 0 6 -8 10 -18 10 -18 0 -52 33 -52 50 0 6 -8 10 -17 10 -9 0 -35 20
-59 45 -23 25 -45 45 -49 45 -5 0 -28 20 -52 45 -23 25 -47 45 -52 45 -5 0
-23 14 -39 30 -17 17 -34 30 -38 30 -4 0 -27 20 -51 45 -23 25 -46 45 -49 45
-8 0 -17 8 -75 65 -20 19 -39 35 -44 35 -4 0 -32 25 -61 55 -30 30 -59 55 -63
55 -23 0 -41 34 -41 76 0 24 -5 44 -10 44 -7 0 -10 355 -10 1070 l0 1070 25 6
c14 3 25 10 25 15 0 5 406 9 965 9 l965 0 6 -25 c3 -14 10 -25 15 -25 5 0 9
-86 9 -190 l0 -191 -26 -24 c-15 -14 -35 -25 -45 -25 -11 0 -19 -4 -19 -9 0
-5 -12 -12 -27 -16 -15 -3 -37 -17 -50 -31 -12 -13 -27 -24 -33 -24 -5 0 -10
-7 -10 -15 0 -8 -7 -15 -15 -15 -8 0 -15 -7 -15 -15 0 -8 -7 -15 -15 -15 -8 0
-15 -6 -15 -14 0 -8 -7 -16 -15 -20 -8 -3 -15 -16 -15 -30 0 -13 -7 -26 -15
-30 -10 -3 -15 -19 -15 -45 0 -23 -5 -41 -12 -43 -9 -3 -13 -31 -13 -93 0 -62
4 -90 13 -92 7 -3 12 -22 12 -49 0 -32 4 -44 15 -44 10 0 15 -10 15 -30 0 -20
5 -30 15 -30 8 0 15 -7 15 -15 0 -8 6 -15 14 -15 8 0 17 -11 20 -25 4 -15 16
-27 31 -31 14 -3 25 -12 25 -20 0 -8 9 -14 20 -14 11 0 20 -7 20 -15 0 -9 9
-15 25 -15 16 0 25 -6 25 -15 0 -8 -4 -15 -10 -15 -5 0 -10 -7 -10 -15 0 -10
-10 -15 -30 -15 -20 0 -30 -5 -30 -15 0 -10 -11 -15 -35 -15 -24 0 -35 -5 -35
-15 0 -9 -9 -15 -25 -15 -14 0 -28 -7 -31 -15 -4 -9 -19 -15 -35 -15 -19 0
-29 -5 -29 -15 0 -10 -10 -15 -30 -15 -20 0 -30 -5 -30 -15 0 -10 -10 -15 -30
-15 -20 0 -30 -5 -30 -15 0 -10 -10 -15 -30 -15 -20 0 -30 -5 -30 -15 0 -8 -7
-15 -15 -15 -8 0 -15 -7 -15 -15 0 -8 -7 -15 -15 -15 -11 0 -15 -11 -15 -37 0
-69 8 -80 56 -88 62 -9 154 4 154 21 0 9 11 14 30 14 20 0 30 5 30 15 0 10 10
15 30 15 20 0 30 5 30 15 0 10 10 15 29 15 16 0 31 6 35 15 3 8 16 15 30 15
13 0 26 7 30 15 3 8 17 15 31 15 15 0 33 7 41 15 9 8 24 15 35 15 10 0 19 7
19 15 0 8 5 15 10 15 6 0 10 -7 10 -15 0 -8 7 -15 15 -15 13 0 15 -33 15 -240
0 -153 -4 -240 -10 -240 -5 0 -10 -10 -10 -22 0 -43 -12 -66 -36 -72 -14 -4
-26 -16 -30 -30 -3 -14 -16 -27 -30 -30 -14 -4 -26 -16 -30 -30 -3 -14 -16
-27 -30 -30 -14 -4 -26 -16 -30 -31 -4 -16 -15 -26 -35 -30 -22 -5 -29 -12
-29 -30 0 -18 -7 -25 -30 -30 -16 -4 -30 -13 -30 -21 0 -8 -7 -14 -15 -14 -8
0 -15 -7 -15 -15 0 -8 -7 -15 -15 -15 -8 0 -15 -7 -15 -15 0 -8 -4 -15 -10
-15 -15 0 -50 -33 -50 -47 0 -7 -7 -13 -15 -13 -9 0 -15 -9 -15 -24 0 -14 -4
-28 -10 -31 -12 -8 -13 -55 -1 -55 5 0 11 -9 14 -20 3 -11 12 -20 21 -20 9 0
16 -4 16 -10 0 -5 11 -10 25 -10 14 0 25 5 25 10 0 6 12 10 28 10 26 0 62 29
62 49 0 5 14 12 30 16 17 4 30 13 30 21 0 8 6 14 14 14 8 0 17 11 20 25 4 14
12 25 20 25 16 0 66 45 66 60 0 5 4 10 10 10 5 0 47 38 94 85 46 47 89 85 95
85 5 0 15 8 21 18 8 12 13 13 16 5 3 -7 12 -13 20 -13 8 0 17 -7 20 -15 3 -8
14 -17 23 -20 10 -3 24 -16 31 -29 7 -14 23 -27 36 -30 14 -4 26 -16 30 -31 3
-14 12 -25 20 -25 7 0 28 -16 47 -35 19 -19 37 -35 41 -35 4 0 35 -27 68 -60
33 -33 65 -60 71 -60 7 -1 23 -14 37 -30 21 -27 30 -30 80 -30 61 0 68 4 93
40 18 27 23 80 7 80 -5 0 -10 7 -10 15 0 8 -7 15 -15 15 -8 0 -15 6 -15 14 0
7 -12 22 -27 32 -35 25 -93 84 -93 94 0 5 -13 11 -29 15 -20 4 -31 14 -35 31
-4 13 -13 24 -21 24 -8 0 -29 16 -48 35 -19 19 -37 35 -41 35 -4 0 -41 34 -83
75 -41 41 -81 75 -88 75 -23 0 -35 99 -41 348 -4 133 -2 192 5 192 6 0 11 7
11 15 0 10 10 15 30 15 20 0 30 -5 30 -15 0 -10 10 -15 30 -15 20 0 30 -5 30
-15 0 -10 10 -15 30 -15 18 0 33 -6 36 -15 4 -9 19 -15 35 -15 19 0 29 -5 29
-15 0 -11 12 -15 44 -15 25 0 51 -6 58 -13 7 -8 26 -17 41 -21 15 -3 27 -11
27 -16 0 -6 16 -10 35 -10 22 0 38 -6 41 -15 8 -21 100 -21 108 0 3 8 12 15
21 15 12 0 15 12 15 55 0 56 -20 95 -47 95 -7 0 -13 7 -13 15 0 10 -10 15 -30
15 -20 0 -30 5 -30 15 0 11 -12 15 -45 15 -33 0 -45 4 -45 15 0 10 -11 15 -35
15 -24 0 -35 5 -35 15 0 10 -10 15 -29 15 -16 0 -31 6 -35 15 -3 10 -19 15
-46 15 -29 0 -40 4 -40 15 0 11 -11 15 -40 15 -29 0 -40 4 -40 15 0 8 -9 15
-20 15 -11 0 -20 7 -20 15 0 8 7 15 15 15 8 0 15 7 15 15 0 8 9 15 20 15 11 0
20 7 20 15 0 8 5 15 11 15 14 0 79 65 79 78 0 6 7 12 15 16 8 3 15 17 15 31 0
14 5 25 10 25 6 0 10 6 10 13 0 6 8 26 17 42 20 36 25 231 7 243 -6 4 -15 22
-19 40 -3 17 -11 32 -16 32 -5 0 -9 11 -9 25 0 16 -6 25 -15 25 -8 0 -15 6
-15 13 0 7 -9 23 -20 35 -11 12 -20 26 -20 32 0 5 -7 10 -15 10 -8 0 -23 9
-32 20 -10 11 -23 20 -30 20 -7 0 -13 5 -13 10 0 6 -6 10 -14 10 -8 0 -21 6
-28 14 -8 7 -29 17 -48 21 -65 14 -64 12 -72 299 -7 267 -13 336 -30 336 -5 0
-16 7 -24 15 -14 13 -155 15 -1149 15 l-1133 0 -31 -31z m2359 -708 c0 -5 25
-13 55 -16 37 -5 55 -12 55 -21 0 -8 7 -14 15 -14 8 0 15 -4 15 -10 0 -5 6
-10 14 -10 7 0 16 -9 19 -20 3 -12 14 -20 26 -20 15 0 23 -10 32 -40 7 -22 16
-40 20 -40 5 0 11 -16 15 -35 3 -19 10 -35 15 -35 5 0 9 -40 9 -90 0 -49 -4
-90 -9 -90 -5 0 -12 -12 -16 -27 -3 -15 -10 -30 -14 -33 -4 -3 -14 -23 -22
-45 -10 -28 -21 -41 -37 -43 -12 -2 -22 -10 -22 -18 0 -8 -7 -14 -15 -14 -8 0
-15 -7 -15 -15 0 -8 -7 -15 -15 -15 -8 0 -15 -7 -15 -15 0 -12 -13 -15 -56
-15 -36 0 -61 -5 -70 -15 -11 -10 -36 -15 -80 -15 -50 0 -64 3 -64 15 0 11
-12 15 -45 15 -33 0 -45 4 -45 15 0 10 -10 15 -30 15 -20 0 -30 5 -30 15 0 8
-4 15 -10 15 -5 0 -10 7 -10 15 0 8 -9 15 -20 15 -11 0 -20 7 -20 15 0 8 -4
15 -9 15 -5 0 -12 14 -16 30 -4 17 -13 30 -21 30 -9 0 -14 11 -14 29 0 16 -6
31 -12 34 -9 2 -13 29 -13 87 0 58 4 85 13 88 6 2 12 17 12 33 0 16 6 32 14
35 8 3 17 16 20 30 4 13 11 24 16 24 6 0 10 6 10 13 0 14 35 47 50 47 6 0 10
6 10 14 0 8 14 17 30 21 17 4 30 10 30 15 0 4 16 11 35 14 19 4 35 11 35 16 0
6 40 10 90 10 50 0 90 -4 90 -9z"/>
</g>
</svg>
